<svg id="Layer_1" data-name="Layer 1" xmlns="http://www.w3.org/2000/svg" viewBox="0 0 80 80"><defs><style>.cls-1{fill:#f6f6f6;}.cls-2{fill:#e0e0e0;}.cls-3{fill:#e8b75f;}.cls-4{fill:#e2a64f;}.cls-5{fill:#fdd57a;}</style></defs><path class="cls-1" d="M65.52,8.11H51.26a2,2,0,0,0-2,2v4.83a2,2,0,0,0,2,2H54s0,0,0,0V28.22a2,2,0,0,0,2,2H60.8a2,2,0,0,0,2-2V17s0,0,0-.05h2.73a2,2,0,0,0,2-2V10.1A2,2,0,0,0,65.52,8.11Z"/><path class="cls-2" d="M60.8,30.72H56a2.5,2.5,0,0,1-2.5-2.5V17.41H51.27a2.49,2.49,0,0,1-2.49-2.49V10.09a2.48,2.48,0,0,1,2.48-2.48H65.52A2.5,2.5,0,0,1,68,10.1v4.82a2.5,2.5,0,0,1-2.49,2.49H63.29V28.22A2.5,2.5,0,0,1,60.8,30.72ZM51.26,8.61a1.48,1.48,0,0,0-1.48,1.48v4.83a1.49,1.49,0,0,0,1.49,1.49H54.5V28.22a1.5,1.5,0,0,0,1.5,1.5H60.8a1.5,1.5,0,0,0,1.5-1.5V16.46l.49-.05h2.73A1.49,1.49,0,0,0,67,14.92V10.1a1.49,1.49,0,0,0-1.49-1.49Z"/><path class="cls-3" d="M63.44,23.77H52.35a2,2,0,0,0-2,2V30H21a2,2,0,0,0-2,2v3.69h-4.5a2,2,0,0,0-2,2V59.2a2,2,0,0,0,2,2H19v3.24a2,2,0,0,0,2,2H51a2,2,0,0,0,2-2V61.19h4.72a2,2,0,0,0,2-2V38.84h3.72a2,2,0,0,0,2-2V25.76A2,2,0,0,0,63.44,23.77Z"/><path class="cls-4" d="M51,66.92H21a2.5,2.5,0,0,1-2.5-2.49V61.69h-4a2.5,2.5,0,0,1-2.5-2.49V37.67a2.49,2.49,0,0,1,2.48-2.48h4V32A2.49,2.49,0,0,1,21,29.52H49.87V25.75a2.48,2.48,0,0,1,2.48-2.48H63.44a2.5,2.5,0,0,1,2.5,2.49V36.85a2.5,2.5,0,0,1-2.5,2.49H60.22V59.2a2.5,2.5,0,0,1-2.49,2.49H53.51v2.74A2.5,2.5,0,0,1,51,66.92ZM14.54,36.19a1.49,1.49,0,0,0-1.48,1.48V59.2a1.5,1.5,0,0,0,1.5,1.49h5v3.74A1.5,1.5,0,0,0,21,65.92H51a1.5,1.5,0,0,0,1.5-1.49V60.69h5.22a1.49,1.49,0,0,0,1.49-1.49V38.34h4.22a1.5,1.5,0,0,0,1.5-1.49V25.76a1.5,1.5,0,0,0-1.5-1.49H52.35a1.48,1.48,0,0,0-1.48,1.48v4.77H21A1.49,1.49,0,0,0,19.54,32v4.19Z"/><path class="cls-4" d="M20.77,60.79H51a2,2,0,0,1,2,2v3.64a0,0,0,0,1,0,0H18.78a0,0,0,0,1,0,0V62.78A2,2,0,0,1,20.77,60.79Z" transform="translate(71.78 127.21) rotate(-180)"/><path class="cls-4" d="M47.31,54.58H59.53a0,0,0,0,1,0,0v4.23a2,2,0,0,1-2,2H45.32a0,0,0,0,1,0,0V56.57A2,2,0,0,1,47.31,54.58Z" transform="translate(104.85 115.37) rotate(-180)"/><path class="cls-4" d="M42.33,49.31h2.19a2,2,0,0,1,2,2v2.2a2,2,0,0,1-2,2h-2.2a2,2,0,0,1-2-2V51.31a2,2,0,0,1,2-2Z" transform="translate(86.88 104.83) rotate(-180)"/><path class="cls-5" d="M23.42,36.22H25.6a2,2,0,0,1,2,2v2.2a2,2,0,0,1-2,2h-2.2a2,2,0,0,1-2-2V38.21A2,2,0,0,1,23.42,36.22Z" transform="translate(49.05 78.64) rotate(-180)"/><path class="cls-4" d="M53.09,33.11h2.19a2,2,0,0,1,2,2v2.2a2,2,0,0,1-2,2h-2.2a2,2,0,0,1-2-2V35.11A2,2,0,0,1,53.09,33.11Z" transform="translate(108.4 72.43) rotate(-180)"/><path class="cls-4" d="M53.09,33.11H63.41a2,2,0,0,1,2,2v2.2a2,2,0,0,1-2,2H51.1a0,0,0,0,1,0,0V35.11A2,2,0,0,1,53.09,33.11Z" transform="translate(116.53 72.43) rotate(-180)"/></svg>