<svg id="Layer_1" data-name="Layer 1" xmlns="http://www.w3.org/2000/svg" viewBox="0 0 80 80"><defs><style>.cls-1{fill:#f5dbb4;}.cls-2{fill:#e5c298;}.cls-3{fill:#744135;}.cls-4{fill:#4e2a20;}.cls-5{fill:#df3d29;}.cls-6{fill:#bf3621;}.cls-7{fill:#9cc543;}.cls-8{fill:#61b33f;}.cls-9{fill:#fcf2db;}.cls-10{fill:#f9db34;}.cls-11{fill:#fcbc10;}</style></defs><path class="cls-1" d="M49.89,26.77V21a1.91,1.91,0,0,0-2-1.81H20.35a1.91,1.91,0,0,0-2,1.81v5.74H11a1.91,1.91,0,0,0-2,1.81V61.82a2,2,0,0,0,2,2H57.24a2,2,0,0,0,2-2V28.58a1.91,1.91,0,0,0-2-1.81Z"/><path class="cls-2" d="M57.24,64.37H11a2.55,2.55,0,0,1-2.54-2.55V28.58A2.41,2.41,0,0,1,11,26.27h6.89V21a2.41,2.41,0,0,1,2.5-2.31H47.89A2.41,2.41,0,0,1,50.39,21v5.24h6.9a2.41,2.41,0,0,1,2.49,2.31V61.82A2.55,2.55,0,0,1,57.24,64.37ZM11,27.27a1.42,1.42,0,0,0-1.5,1.31V61.82A1.55,1.55,0,0,0,11,63.37H57.24a1.55,1.55,0,0,0,1.54-1.55V28.58a1.41,1.41,0,0,0-1.49-1.31h-7.9V21a1.42,1.42,0,0,0-1.5-1.31H20.35A1.42,1.42,0,0,0,18.85,21v6.24Z"/><path class="cls-3" d="M20.27,46.69c0,1.27.66,2.3,1.47,2.3H62.1c.71,0,1.29-.9,1.29-2V42c0-1.11-.58-2-1.29-2H60.61v-7c0-1.12-.58-2-1.29-2h-32c-.71,0-1.29.9-1.29,2v7H21.55c-.71,0-1.28.91-1.28,2Z"/><path class="cls-4" d="M62.1,49.49H21.74c-1.11,0-2-1.23-2-2.8V42c0-1.41.78-2.52,1.78-2.52h4V32.9c0-1.41.79-2.52,1.79-2.52h32c1,0,1.79,1.11,1.79,2.52v6.54h1c1,0,1.78,1.11,1.78,2.52v5C63.88,48.39,63.1,49.49,62.1,49.49ZM21.55,40.44c-.37,0-.78.65-.78,1.52v4.73c0,1.06.51,1.8,1,1.8H62.1c.37,0,.78-.64.78-1.51V42c0-.87-.41-1.52-.78-1.52h-2V32.9c0-.87-.42-1.52-.79-1.52h-32c-.37,0-.79.65-.79,1.52v7.54Z"/><rect class="cls-5" x="35.5" y="26.2" width="9.37" height="9.37" rx="2.13" transform="translate(80.36 61.77) rotate(-180)"/><path class="cls-6" d="M42.73,36.07h-5.1A2.63,2.63,0,0,1,35,33.44V28.33a2.63,2.63,0,0,1,2.63-2.63h5.1a2.64,2.64,0,0,1,2.64,2.63v5.11A2.64,2.64,0,0,1,42.73,36.07Zm-5.1-9.37A1.63,1.63,0,0,0,36,28.33v5.11a1.63,1.63,0,0,0,1.63,1.63h5.1a1.64,1.64,0,0,0,1.64-1.63V28.33a1.64,1.64,0,0,0-1.64-1.63Z"/><rect class="cls-7" x="52.27" y="30.87" width="9.71" height="9.71" rx="2.13" transform="translate(114.24 71.45) rotate(-180)"/><path class="cls-8" d="M59.84,41.08H54.4a2.63,2.63,0,0,1-2.63-2.63V33a2.63,2.63,0,0,1,2.63-2.63h5.44A2.64,2.64,0,0,1,62.48,33v5.45A2.64,2.64,0,0,1,59.84,41.08ZM54.4,31.37A1.63,1.63,0,0,0,52.77,33v5.45a1.63,1.63,0,0,0,1.63,1.63h5.44a1.64,1.64,0,0,0,1.64-1.63V33a1.64,1.64,0,0,0-1.64-1.63Z"/><rect class="cls-7" x="17.27" y="46.62" width="24.55" height="17.25" rx="2.13" transform="translate(59.1 110.48) rotate(-180)"/><path class="cls-8" d="M39.69,64.37H19.4a2.64,2.64,0,0,1-2.63-2.64v-13a2.63,2.63,0,0,1,2.63-2.63H39.69a2.64,2.64,0,0,1,2.64,2.63v13A2.64,2.64,0,0,1,39.69,64.37ZM19.4,47.12a1.63,1.63,0,0,0-1.63,1.63v13a1.64,1.64,0,0,0,1.63,1.64H39.69a1.65,1.65,0,0,0,1.64-1.64v-13a1.64,1.64,0,0,0-1.64-1.63Z"/><path class="cls-9" d="M66.52,46.65V39.87a1.91,1.91,0,0,0-2-1.82H37a1.91,1.91,0,0,0-2,1.82v6.78H27.59a1.92,1.92,0,0,0-2,1.83V61.81a2.05,2.05,0,0,0,2,2.06H73.87a2.05,2.05,0,0,0,2-2.06V48.48a1.91,1.91,0,0,0-2-1.83Z"/><path class="cls-1" d="M73.87,64.37H27.63a2.55,2.55,0,0,1-2.54-2.56V48.48a2.42,2.42,0,0,1,2.5-2.33h6.89V39.87A2.42,2.42,0,0,1,37,37.55H64.52A2.42,2.42,0,0,1,67,39.87v6.28h6.89a2.42,2.42,0,0,1,2.5,2.33V61.81A2.55,2.55,0,0,1,73.87,64.37ZM27.59,47.15a1.42,1.42,0,0,0-1.5,1.33V61.81a1.55,1.55,0,0,0,1.54,1.56H73.87a1.55,1.55,0,0,0,1.54-1.56V48.48a1.42,1.42,0,0,0-1.5-1.33H66V39.87a1.42,1.42,0,0,0-1.5-1.32H37a1.42,1.42,0,0,0-1.5,1.32v7.28Z"/><rect class="cls-10" x="14.96" y="44.45" width="7.8" height="7.8" rx="2.13" transform="translate(37.71 96.71) rotate(-180)"/><path class="cls-11" d="M20.62,52.75H17.09a2.63,2.63,0,0,1-2.63-2.63V46.58A2.63,2.63,0,0,1,17.09,44h3.53a2.64,2.64,0,0,1,2.64,2.63v3.54A2.64,2.64,0,0,1,20.62,52.75ZM17.09,45a1.63,1.63,0,0,0-1.63,1.63v3.54a1.63,1.63,0,0,0,1.63,1.63h3.53a1.64,1.64,0,0,0,1.64-1.63V46.58A1.64,1.64,0,0,0,20.62,45Z"/></svg>