<svg id="Layer_1" data-name="Layer 1" xmlns="http://www.w3.org/2000/svg" viewBox="0 0 80 80"><defs><style>.cls-1{fill:#fff2c4;}.cls-2{fill:#f5dbb4;}.cls-3{fill:#e8b75f;}.cls-4{fill:#e2a64f;}.cls-5{fill:#df3d29;}.cls-6{fill:#bf3621;}.cls-7{fill:#fdd57a;}.cls-8{fill:#292522;}.cls-9{fill:#f9db34;}.cls-10{fill:#fcbc10;}.cls-11{fill:#9cc543;}.cls-12{fill:#61b33f;}</style></defs><path class="cls-1" d="M54.13,42.52V35a2,2,0,0,0-2-2H43.36V25.71a2,2,0,0,0-2-2H36.06V16.22a2,2,0,0,0-2-2H27V8.68a2,2,0,0,0-2-2H19.61a2,2,0,0,0-2,2V60.79H62.74V44.49a2,2,0,0,0-2-2Z"/><path class="cls-2" d="M63.24,61.29H17.13V8.68a2.48,2.48,0,0,1,2.48-2.47H25A2.48,2.48,0,0,1,27.5,8.68v5.06h6.58a2.49,2.49,0,0,1,2.48,2.48v7h4.82a2.49,2.49,0,0,1,2.48,2.48v6.85h8.29A2.49,2.49,0,0,1,54.63,35v7h6.13a2.48,2.48,0,0,1,2.48,2.47Zm-45.11-1H62.24V44.49A1.48,1.48,0,0,0,60.76,43H53.63V35a1.49,1.49,0,0,0-1.48-1.48H42.86V25.71a1.49,1.49,0,0,0-1.48-1.48H35.56v-8a1.48,1.48,0,0,0-1.48-1.48H26.5V8.68A1.48,1.48,0,0,0,25,7.21H19.61a1.47,1.47,0,0,0-1.48,1.47Z"/><path class="cls-3" d="M19.62,60.79H66.88a2,2,0,0,1,2,2v8a0,0,0,0,1,0,0H19.62a2,2,0,0,1-2-2v-6A2,2,0,0,1,19.62,60.79Z" transform="translate(86.5 131.59) rotate(-180)"/><path class="cls-4" d="M66.88,71.3H19.62a2.49,2.49,0,0,1-2.49-2.49V60.29H66.88a2.5,2.5,0,0,1,2.5,2.49v6A2.49,2.49,0,0,1,66.88,71.3Zm-48.75-10v7.52a1.49,1.49,0,0,0,1.49,1.49H66.88a1.5,1.5,0,0,0,1.5-1.49v-6a1.5,1.5,0,0,0-1.5-1.49Z"/><rect class="cls-5" x="47.94" y="47.73" width="9.37" height="9.37" rx="2.13" transform="translate(105.24 104.83) rotate(-180)"/><path class="cls-6" d="M55.17,57.6h-5.1A2.63,2.63,0,0,1,47.44,55V49.86a2.63,2.63,0,0,1,2.63-2.63h5.1a2.64,2.64,0,0,1,2.64,2.63V55A2.64,2.64,0,0,1,55.17,57.6Zm-5.1-9.37a1.63,1.63,0,0,0-1.63,1.63V55a1.63,1.63,0,0,0,1.63,1.63h5.1A1.64,1.64,0,0,0,56.81,55V49.86a1.64,1.64,0,0,0-1.64-1.63Z"/><rect class="cls-5" x="21.83" y="34.63" width="9.37" height="9.37" rx="2.13" transform="translate(53.03 78.64) rotate(-180)"/><path class="cls-6" d="M29.07,44.5H24a2.63,2.63,0,0,1-2.63-2.63v-5.1A2.64,2.64,0,0,1,24,34.13h5.11a2.64,2.64,0,0,1,2.63,2.64v5.1A2.63,2.63,0,0,1,29.07,44.5ZM24,35.13a1.64,1.64,0,0,0-1.63,1.64v5.1A1.63,1.63,0,0,0,24,43.5h5.11a1.63,1.63,0,0,0,1.63-1.63v-5.1a1.64,1.64,0,0,0-1.63-1.64Z"/><rect class="cls-7" x="22.9" y="62.18" width="7.24" height="7.24" rx="2.13" transform="translate(53.03 131.59) rotate(-180)"/><path class="cls-8" d="M34.15,49.3a.13.13,0,0,1,.13.14v5.5a.13.13,0,0,1-.13.13h-5.5a.13.13,0,0,1-.14-.13v-5.5a.14.14,0,0,1,.14-.14h5.5m0-2h-5.5a2.14,2.14,0,0,0-2.14,2.14v5.5a2.13,2.13,0,0,0,2.14,2.13h5.5a2.13,2.13,0,0,0,2.13-2.13v-5.5a2.13,2.13,0,0,0-2.13-2.14Z"/><rect class="cls-9" x="26.23" y="23.68" width="7.8" height="7.8" rx="2.13" transform="translate(60.25 55.16) rotate(-180)"/><path class="cls-10" d="M31.89,32H28.36a2.63,2.63,0,0,1-2.63-2.63V25.81a2.63,2.63,0,0,1,2.63-2.63h3.53a2.64,2.64,0,0,1,2.64,2.63v3.54A2.64,2.64,0,0,1,31.89,32Zm-3.53-7.8a1.63,1.63,0,0,0-1.63,1.63v3.54A1.63,1.63,0,0,0,28.36,31h3.53a1.64,1.64,0,0,0,1.64-1.63V25.81a1.64,1.64,0,0,0-1.64-1.63Z"/><rect class="cls-11" x="40.18" y="40.21" width="9.71" height="9.71" rx="2.13" transform="translate(90.07 90.14) rotate(-180)"/><path class="cls-12" d="M47.76,50.42H42.31a2.63,2.63,0,0,1-2.63-2.63V42.35a2.64,2.64,0,0,1,2.63-2.64h5.45a2.64,2.64,0,0,1,2.63,2.64v5.44A2.63,2.63,0,0,1,47.76,50.42Zm-5.45-9.71a1.64,1.64,0,0,0-1.63,1.64v5.44a1.63,1.63,0,0,0,1.63,1.63h5.45a1.63,1.63,0,0,0,1.63-1.63V42.35a1.64,1.64,0,0,0-1.63-1.64Z"/></svg>